<?xml version="1.0" standalone="no"?>
<!DOCTYPE svg PUBLIC "-//W3C//DTD SVG 20010904//EN"
 "http://www.w3.org/TR/2001/REC-SVG-20010904/DTD/svg10.dtd">
<svg version="1.0" xmlns="http://www.w3.org/2000/svg"
 width="5000.000000pt" height="5000.000000pt" viewBox="0 0 5000.000000 5000.000000"
 preserveAspectRatio="xMidYMid meet">

<g transform="translate(0.000000,5000.000000) scale(0.100000,-0.100000)"
fill="#000000" stroke="none">
<path d="M9110 30198 c-23 -35 -71 -124 -109 -199 -279 -559 -294 -1208 -44
-1903 31 -87 43 -131 35 -134 -7 -2 -64 -37 -128 -78 -712 -455 -1216 -1304
-1340 -2259 -22 -165 -25 -581 -5 -740 74 -616 278 -1158 645 -1715 298 -452
711 -891 1256 -1336 1069 -873 1960 -1549 2558 -1941 210 -138 233 -148 337
-148 102 0 140 17 344 159 600 418 1622 1235 2501 2000 511 444 854 820 1140
1246 328 489 545 1037 632 1595 19 119 22 183 22 420 1 292 -8 384 -55 620
-165 821 -687 1581 -1331 1939 -38 21 -68 42 -68 46 0 5 17 49 39 97 95 218
161 437 202 668 26 153 36 431 20 575 -32 279 -118 542 -255 773 -59 100 -81
126 -96 111 -5 -5 -14 -111 -20 -234 -22 -482 -108 -857 -275 -1205 -86 -178
-221 -370 -348 -493 l-44 -43 -144 17 c-175 20 -475 15 -649 -11 -367 -55
-724 -193 -1029 -396 -133 -89 -161 -122 -161 -190 0 -83 57 -139 143 -139 37
0 60 10 147 66 353 227 755 346 1175 347 355 1 673 -70 982 -218 281 -135 493
-302 694 -547 301 -368 497 -811 574 -1303 22 -141 31 -463 16 -620 -80 -852
-555 -1676 -1386 -2404 -378 -331 -1488 -1193 -2135 -1658 -164 -118 -576
-402 -618 -427 -33 -20 -913 644 -1622 1223 -325 265 -887 738 -1015 852 -249
223 -526 521 -702 754 -555 740 -769 1532 -622 2303 88 459 327 919 641 1233
563 563 1471 702 2203 337 227 -114 328 -198 545 -453 242 -285 366 -379 528
-401 149 -20 363 104 437 253 37 75 45 187 21 283 -25 99 -107 253 -198 375
-92 123 -289 325 -418 428 -208 167 -510 338 -760 429 -446 163 -977 214
-1425 138 -210 -36 -183 -40 -237 32 -169 229 -317 554 -398 878 -66 262 -97
486 -113 820 -11 209 -14 235 -29 238 -12 2 -30 -16 -58 -60z"/>
<path d="M39630 28497 c-137 -38 -304 -218 -460 -495 -66 -118 -208 -425 -457
-987 -107 -242 -244 -549 -304 -682 -60 -133 -110 -247 -111 -254 -3 -10 131
-74 137 -67 2 2 58 107 126 235 141 263 232 391 425 592 178 186 318 281 441
301 46 8 62 7 80 -5 56 -37 35 -101 -117 -355 -156 -261 -210 -398 -210 -530
0 -125 61 -201 180 -222 140 -24 283 74 439 304 l38 56 10 -78 c17 -128 70
-213 164 -265 43 -23 69 -30 134 -33 101 -5 172 9 264 53 125 60 252 173 339
301 l41 61 78 5 c49 3 96 12 126 26 26 12 46 18 44 14 -140 -241 -737 -1351
-737 -1370 0 -5 15 -16 33 -25 17 -8 56 -30 84 -47 l53 -30 284 568 c156 312
314 619 351 682 330 559 651 884 880 893 65 3 91 -25 88 -98 -2 -73 -28 -122
-169 -318 -167 -233 -215 -337 -217 -476 -2 -135 66 -212 195 -219 63 -4 76
-1 134 28 127 65 303 258 429 471 l54 92 -23 18 c-13 11 -28 19 -33 19 -4 0
-26 -28 -48 -63 -22 -34 -72 -105 -111 -157 -214 -288 -348 -386 -414 -302
-19 23 -21 36 -17 89 6 76 43 159 158 349 138 230 179 335 179 459 0 78 -23
132 -72 167 -28 19 -45 23 -108 23 -92 0 -158 -21 -262 -83 -111 -65 -239
-184 -381 -352 -30 -36 0 32 143 319 100 200 180 365 178 366 -2 2 -15 6 -29
10 -25 6 -33 -4 -211 -307 -102 -172 -212 -359 -244 -415 -32 -57 -63 -103
-67 -103 -4 0 -33 -27 -63 -59 -36 -39 -70 -65 -97 -75 -55 -19 -137 -30 -137
-18 0 5 13 38 29 73 87 187 105 444 41 570 -11 20 -35 50 -55 67 -30 27 -44
32 -86 32 -67 0 -113 -23 -154 -77 -61 -80 -79 -142 -79 -273 1 -180 48 -315
140 -400 l43 -40 -58 -72 c-204 -257 -455 -366 -580 -252 -45 40 -61 87 -61
176 0 195 140 475 340 678 47 48 100 99 119 112 l34 26 -22 31 c-12 17 -28 31
-34 31 -18 0 -125 -67 -193 -121 -34 -27 -97 -86 -140 -132 -89 -94 -113 -128
-283 -400 -124 -200 -267 -369 -343 -408 -50 -26 -100 -25 -124 2 -15 17 -19
36 -18 93 1 87 28 156 157 400 143 270 174 363 156 459 -36 197 -284 195 -548
-3 -84 -63 -244 -225 -312 -315 -23 -30 -43 -55 -45 -55 -2 0 35 83 150 334
33 72 52 95 219 265 526 538 777 946 692 1125 -28 59 -111 86 -195 63z m115
-97 c70 -77 -153 -460 -486 -835 -104 -118 -199 -214 -199 -202 0 15 244 556
313 692 108 218 173 307 252 348 43 23 98 21 120 -3z m1068 -1258 c39 -40 61
-138 54 -234 -11 -133 -82 -368 -113 -368 -38 0 -110 145 -131 268 -25 144 5
275 77 336 41 34 79 34 113 -2z"/>
<path d="M20755 28405 c-122 -31 -284 -140 -402 -269 -143 -158 -282 -371
-558 -856 -93 -162 -199 -345 -237 -406 l-68 -112 -53 -6 c-303 -33 -555 -1
-760 97 -208 99 -344 250 -392 434 -17 66 -20 235 -4 303 58 261 256 457 535
531 113 30 327 37 454 15 79 -14 238 -61 301 -90 12 -5 22 2 38 29 l21 36 -45
19 c-219 94 -534 129 -771 86 -307 -55 -536 -210 -649 -440 -55 -111 -75 -198
-75 -336 0 -129 18 -210 71 -317 111 -225 350 -380 694 -450 72 -14 137 -18
326 -18 l237 0 -21 -30 c-90 -130 -257 -327 -315 -371 l-34 -26 -131 22 c-97
16 -172 22 -282 22 -294 0 -432 -62 -443 -197 -5 -65 24 -110 93 -145 41 -20
68 -25 154 -28 174 -7 331 31 503 120 l77 40 128 -42 c186 -61 343 -105 468
-131 152 -32 381 -33 500 -1 111 30 233 93 300 154 53 48 55 52 39 69 -29 32
-53 33 -82 6 -48 -46 -141 -95 -213 -112 -55 -14 -95 -16 -178 -12 -115 6
-175 21 -549 131 -123 36 -225 66 -227 66 -1 0 57 60 129 133 72 72 175 188
228 257 l96 125 108 28 c759 197 1419 864 1392 1406 -7 131 -48 205 -143 254
-52 27 -177 32 -260 12z m236 -98 c75 -51 102 -139 81 -274 -65 -418 -499
-878 -1053 -1116 -110 -47 -267 -102 -274 -95 -3 2 19 40 49 84 55 82 108 170
415 684 217 364 287 465 406 585 113 114 187 155 280 155 48 0 70 -5 96 -23z
m-2233 -2172 c61 -15 112 -30 112 -34 0 -7 -95 -53 -165 -80 -96 -36 -279 -52
-357 -31 -40 12 -78 51 -78 82 0 26 53 75 94 88 58 18 271 5 394 -25z"/>
<path d="M32085 28374 c-234 -52 -439 -225 -653 -549 -82 -123 -198 -326 -317
-553 l-90 -172 -60 0 c-190 0 -431 41 -580 99 -181 70 -328 189 -390 315 -92
187 -54 399 100 549 95 94 222 154 375 178 98 15 265 6 360 -21 102 -28 262
-109 338 -170 62 -50 63 -50 87 -33 13 10 25 23 25 29 0 21 -155 134 -245 179
-431 213 -971 140 -1169 -160 -81 -121 -116 -298 -87 -438 18 -84 73 -185 142
-260 183 -200 512 -323 923 -343 75 -4 136 -8 136 -10 0 -8 -199 -359 -250
-439 -173 -275 -362 -480 -541 -585 -466 -276 -1021 -44 -986 410 18 231 177
413 412 475 77 20 244 19 343 -1 103 -21 210 -67 284 -121 l61 -45 24 25 25
25 -63 50 c-85 68 -223 135 -345 169 -86 24 -117 27 -239 27 -199 1 -311 -33
-449 -135 -163 -122 -250 -343 -218 -562 56 -390 531 -618 1013 -486 104 28
280 116 380 190 98 72 246 219 342 339 95 118 237 335 346 525 l91 161 110 17
c354 56 682 213 912 435 196 190 298 392 298 591 0 141 -53 233 -164 282 -65
28 -187 34 -281 13z m283 -102 c49 -35 75 -94 80 -182 10 -178 -88 -371 -285
-561 -198 -190 -459 -320 -772 -383 -69 -14 -127 -24 -129 -22 -2 3 52 107
119 233 257 480 394 682 547 808 119 99 211 135 332 132 60 -2 81 -7 108 -25z"/>
<path d="M38555 28374 c-154 -34 -287 -116 -430 -265 -166 -173 -311 -400
-566 -886 l-64 -123 -60 0 c-110 0 -289 20 -395 44 -204 46 -346 116 -466 228
-111 105 -157 207 -156 348 2 266 209 472 522 521 100 15 266 6 360 -21 103
-28 262 -109 338 -170 61 -49 63 -50 87 -34 14 9 25 22 25 29 0 15 -78 81
-154 130 -263 168 -645 220 -929 125 -265 -89 -411 -272 -424 -530 -8 -161 36
-282 149 -405 182 -198 513 -321 922 -341 75 -4 136 -9 136 -10 0 -8 -192
-347 -244 -432 -144 -232 -354 -468 -504 -566 -476 -313 -1068 -88 -1028 391
18 226 181 409 417 469 80 21 293 14 384 -11 84 -23 191 -75 249 -119 l49 -38
24 25 25 25 -63 50 c-138 110 -346 187 -534 199 -337 20 -604 -142 -696 -422
-30 -91 -33 -269 -6 -356 92 -296 448 -485 827 -440 136 17 229 44 356 106
316 154 587 456 894 999 l81 144 57 7 c445 53 892 298 1110 609 109 154 157
295 150 445 -5 107 -22 153 -80 208 -76 73 -218 99 -363 67z m287 -106 c58
-44 73 -87 73 -208 0 -93 -3 -113 -29 -175 -50 -119 -107 -204 -214 -316 -207
-216 -471 -354 -811 -423 -69 -14 -127 -24 -129 -22 -4 5 186 361 281 526 146
256 292 447 409 535 117 88 192 115 309 112 65 -2 81 -6 111 -29z"/>
<path d="M24547 27610 c-75 -82 -137 -152 -137 -155 0 -3 23 -5 51 -5 l51 0
177 146 c97 81 180 151 186 155 5 5 -35 9 -91 9 l-99 0 -138 -150z"/>
<path d="M26685 27562 c-63 -39 -113 -179 -81 -227 51 -78 216 46 216 162 0
70 -71 104 -135 65z"/>
<path d="M32538 27234 c-133 -32 -316 -150 -448 -290 -148 -156 -228 -314
-251 -494 -30 -240 87 -406 321 -456 172 -37 367 14 540 142 147 108 257 233
408 464 186 285 336 455 452 513 66 33 101 34 133 5 44 -40 50 -78 55 -320 l4
-227 -103 -128 c-222 -275 -373 -403 -476 -403 -21 0 -23 3 -16 28 17 59 9
103 -25 133 -51 46 -102 35 -128 -27 -16 -38 -8 -97 20 -139 26 -39 87 -65
154 -65 125 0 277 114 485 364 l92 110 12 -114 c14 -138 29 -201 59 -262 29
-57 66 -84 133 -99 173 -37 382 127 628 496 33 50 68 105 77 123 17 32 17 35
0 53 -10 11 -23 18 -30 17 -6 -2 -52 -64 -102 -138 -205 -306 -374 -466 -485
-458 -39 3 -44 6 -64 48 -27 55 -40 160 -48 385 l-6 170 117 145 c168 210 280
321 336 335 25 6 25 6 21 -42 -4 -42 -1 -54 18 -76 13 -15 38 -30 56 -33 27
-5 37 -1 63 24 26 26 30 38 30 81 0 44 -5 56 -34 88 -30 33 -39 37 -95 41 -52
4 -69 0 -118 -24 -68 -34 -183 -145 -302 -291 -46 -57 -87 -103 -92 -103 -5 0
-9 19 -9 43 -1 114 -62 282 -118 324 -54 40 -148 54 -223 33 -20 -6 -64 -28
-97 -50 -115 -74 -233 -212 -397 -465 -153 -236 -287 -392 -411 -481 -186
-133 -418 -180 -538 -110 -95 55 -135 148 -128 297 l2 36 78 6 c159 13 387 95
528 189 94 63 180 156 218 238 40 85 43 191 8 258 -29 54 -89 97 -153 111 -62
14 -79 13 -151 -5z m168 -85 c22 -18 33 -74 23 -119 -52 -229 -371 -484 -647
-517 -54 -6 -54 -6 -47 18 53 174 243 432 400 545 117 83 224 112 271 73z"/>
<path d="M21865 27143 c-174 -302 -455 -676 -637 -849 -135 -128 -235 -184
-328 -184 -59 0 -92 24 -108 78 -46 153 50 402 304 790 52 79 94 146 94 150 0
4 -14 16 -32 26 l-32 19 -105 -109 c-202 -207 -341 -424 -386 -599 -20 -79
-19 -199 2 -266 25 -77 92 -142 169 -165 153 -44 313 31 530 250 l120 122 -24
-76 c-40 -126 -13 -224 74 -265 171 -81 395 91 664 508 147 229 219 325 314
421 103 104 195 155 254 140 72 -18 92 -100 92 -379 l0 -181 -91 -114 c-219
-279 -381 -419 -482 -420 -27 0 -28 2 -21 33 13 50 9 86 -13 115 -28 38 -67
50 -101 31 -84 -46 -56 -193 45 -235 18 -8 59 -14 91 -14 125 0 280 117 477
359 50 60 93 110 98 110 4 1 7 -20 7 -46 0 -66 26 -228 45 -284 8 -25 29 -62
46 -82 54 -65 167 -82 269 -39 91 37 255 187 363 330 l47 64 0 -54 c0 -121 54
-225 142 -273 46 -26 63 -30 133 -30 69 0 89 5 149 33 103 48 189 114 310 237
60 60 106 103 103 95 -70 -185 -34 -310 98 -340 99 -22 203 29 345 170 134
132 164 174 439 617 l113 181 41 -36 c81 -74 87 -82 87 -107 0 -28 -39 -111
-100 -210 -55 -90 -103 -187 -135 -275 -38 -103 -41 -225 -7 -288 29 -55 97
-99 166 -107 136 -17 291 74 426 252 l47 62 6 -50 c9 -77 42 -125 104 -156 48
-23 62 -25 121 -20 120 11 254 98 360 232 l31 40 1 -56 c0 -112 56 -206 154
-257 44 -23 62 -27 141 -27 167 0 272 52 437 217 l108 107 1 -52 c0 -72 27
-134 72 -171 36 -29 45 -31 116 -31 69 0 85 4 156 39 132 65 292 238 402 434
34 61 35 64 18 82 -10 11 -24 20 -31 20 -6 0 -33 -34 -58 -75 -111 -178 -268
-350 -358 -394 -52 -25 -105 -27 -136 -5 -75 52 33 347 312 849 50 90 54 101
39 113 -9 6 -22 12 -27 12 -6 0 -40 -34 -75 -75 -65 -77 -81 -88 -81 -57 0 36
-56 108 -102 131 -178 86 -441 31 -667 -140 -125 -94 -210 -193 -367 -431
-161 -243 -256 -351 -346 -393 -64 -30 -128 -33 -151 -7 -58 64 24 301 248
717 111 207 122 231 107 243 -9 7 -22 11 -28 10 -30 -8 -275 -322 -362 -465
-270 -443 -425 -613 -559 -613 -26 0 -50 8 -68 22 -26 21 -27 24 -23 98 5 86
26 137 142 350 79 145 116 237 116 291 0 45 4 40 -164 191 -41 37 -50 70 -34
129 6 21 3 28 -15 36 -22 10 -31 -2 -192 -255 -263 -413 -375 -564 -516 -696
-84 -79 -146 -116 -196 -116 -48 0 -58 20 -45 92 13 72 82 217 266 563 172
323 206 388 203 391 -19 16 -111 53 -117 47 -3 -4 -35 -55 -70 -113 -210 -347
-478 -696 -654 -850 -123 -108 -203 -149 -287 -150 -97 0 -126 49 -117 198 10
160 115 380 338 712 l70 105 -27 22 c-16 13 -33 23 -40 23 -14 0 -167 -161
-246 -260 -33 -41 -82 -109 -109 -150 -26 -41 -51 -80 -55 -85 -5 -6 -51 -76
-105 -155 -200 -301 -366 -460 -479 -460 -44 0 -65 21 -85 86 -15 49 -34 298
-34 442 l0 83 129 157 c168 204 289 322 331 322 12 0 14 -10 12 -50 -4 -44 -1
-53 26 -80 57 -56 129 -24 139 61 10 88 -48 149 -143 149 -104 0 -206 -78
-390 -300 l-109 -131 -11 88 c-32 251 -114 346 -286 330 -127 -11 -282 -139
-436 -362 -46 -66 -122 -176 -170 -246 -124 -178 -184 -253 -276 -344 -97 -95
-169 -138 -223 -133 -37 3 -38 4 -41 47 -6 76 47 194 263 596 119 222 205 389
205 398 0 7 -95 57 -107 57 -4 -1 -30 -40 -58 -87z m5791 -68 c41 -32 64 -78
64 -131 0 -27 -13 -57 -49 -113 -27 -42 -81 -130 -120 -195 -190 -314 -394
-507 -566 -534 -146 -23 -219 40 -218 188 3 255 257 616 530 755 96 49 165 65
250 61 60 -2 78 -7 109 -31z"/>
<path d="M14020 26719 c-212 -25 -529 -96 -563 -126 -25 -24 -19 -74 11 -89
19 -9 44 -6 134 18 748 194 1337 55 1622 -383 232 -357 301 -929 171 -1423
-71 -273 -231 -602 -428 -881 -386 -547 -992 -1101 -1837 -1682 -228 -156
-752 -496 -765 -496 -13 0 -485 311 -726 478 -262 182 -574 418 -789 597 -924
772 -1421 1490 -1536 2218 -22 142 -22 412 0 545 73 441 215 679 487 820 145
75 215 90 419 90 208 0 285 -17 445 -95 106 -52 180 -107 240 -180 51 -62 82
-80 135 -80 61 0 106 29 131 85 27 60 18 101 -37 174 -71 95 -182 181 -321
250 -287 141 -643 170 -945 75 -456 -143 -724 -517 -804 -1119 -24 -177 -15
-464 20 -646 169 -892 859 -1757 2126 -2665 361 -260 1091 -732 1143 -741 19
-3 45 0 58 7 44 24 665 436 821 546 542 381 904 678 1273 1048 657 658 1005
1274 1085 1921 15 119 15 377 0 490 -100 753 -477 1161 -1150 1244 -98 13
-311 12 -420 0z"/>
<path d="M20840 22473 l0 -278 -30 52 c-44 77 -129 140 -225 169 -44 12 -83
15 -157 12 -88 -4 -106 -9 -172 -42 -156 -76 -236 -220 -236 -421 0 -199 81
-345 233 -420 205 -101 456 -38 557 139 l30 51 0 -112 0 -113 40 0 40 0 0 620
0 620 -40 0 -40 0 0 -277z m-229 -132 c144 -54 229 -194 229 -376 0 -230 -130
-382 -344 -402 -77 -7 -173 16 -238 58 -120 77 -183 244 -158 420 24 166 112
272 260 314 71 19 177 13 251 -14z"/>
<path d="M24730 22130 l0 -620 35 0 35 0 0 620 0 620 -35 0 -35 0 0 -620z"/>
<path d="M26850 22685 c-101 -29 -179 -94 -217 -183 -21 -48 -21 -174 0 -223
23 -55 82 -115 140 -143 29 -13 115 -43 191 -66 211 -63 267 -99 296 -186 20
-59 9 -155 -23 -203 -102 -153 -390 -160 -503 -13 -19 26 -40 66 -47 89 -11
41 -13 43 -49 43 -45 0 -47 -10 -21 -86 23 -69 109 -153 188 -185 51 -20 77
-24 180 -24 109 0 125 2 176 26 69 33 134 95 162 158 17 35 22 65 22 126 -1
70 -4 87 -30 134 -49 89 -101 117 -371 200 -109 34 -138 47 -177 81 -60 53
-82 109 -74 191 12 131 119 213 277 212 127 0 209 -44 269 -146 30 -51 37 -57
67 -57 40 0 43 15 15 75 -31 66 -87 122 -157 156 -57 28 -77 32 -162 36 -66 2
-114 -2 -152 -12z"/>
<path d="M18090 22660 l0 -30 165 0 165 0 0 -560 0 -560 40 0 40 0 0 560 0
560 165 0 165 0 0 30 0 30 -370 0 -370 0 0 -30z"/>
<path d="M22760 22101 l0 -591 35 0 35 0 2 258 3 257 195 6 c225 6 277 20 350
90 67 65 85 115 85 239 0 95 -3 110 -27 156 -35 66 -92 116 -164 145 -54 21
-78 23 -286 27 l-228 4 0 -591z m469 503 c110 -32 167 -120 165 -254 -3 -198
-113 -265 -429 -258 l-130 3 -3 263 -2 262 173 0 c128 0 187 -4 226 -16z"/>
<path d="M30150 22100 l0 -590 40 0 40 0 0 260 0 260 173 0 c224 0 308 22 384
102 55 57 77 120 77 224 1 85 -1 96 -34 160 -28 55 -46 76 -90 106 -80 55
-152 68 -392 68 l-198 0 0 -590z m520 485 c77 -43 111 -100 118 -200 9 -139
-38 -225 -146 -266 -48 -18 -84 -22 -234 -27 l-178 -5 0 268 0 267 193 -4
c192 -3 192 -3 247 -33z"/>
<path d="M35180 22412 c0 -154 3 -354 7 -445 l6 -167 27 0 27 0 6 182 c4 99 7
300 7 445 l0 263 -40 0 -40 0 0 -278z"/>
<path d="M31362 22424 c-29 -7 -65 -20 -80 -28 -34 -18 -95 -82 -115 -121 -16
-29 -16 -28 -17 58 l0 87 -40 0 -40 0 0 -455 0 -455 40 0 40 0 0 303 c0 245 3
313 16 356 30 103 130 177 253 189 l66 7 3 38 c3 37 3 37 -35 36 -21 0 -62 -7
-91 -15z"/>
<path d="M34852 22424 c-29 -7 -66 -21 -82 -29 -38 -20 -94 -78 -114 -118 -15
-32 -16 -31 -16 56 l0 87 -40 0 -40 0 0 -455 0 -455 40 0 40 0 0 303 c0 245 3
313 16 356 30 102 132 179 251 189 l63 5 0 38 c0 37 -1 39 -32 38 -18 0 -57
-7 -86 -15z"/>
<path d="M21470 22416 c-98 -28 -196 -99 -245 -176 -52 -82 -69 -148 -69 -270
-1 -136 22 -219 84 -301 86 -115 203 -169 364 -169 283 1 459 200 443 500 -10
195 -107 339 -270 402 -66 26 -240 34 -307 14z m285 -80 c102 -46 162 -112
197 -216 29 -87 29 -229 -1 -314 -46 -130 -143 -211 -285 -237 -169 -32 -332
53 -404 209 -47 102 -42 292 10 395 44 87 134 159 232 184 75 19 184 10 251
-21z"/>
<path d="M23939 22416 c-206 -59 -325 -252 -306 -497 12 -150 79 -276 188
-348 90 -60 193 -83 319 -69 145 15 260 90 319 210 42 84 41 100 -5 96 -33 -3
-38 -7 -54 -47 -35 -92 -115 -159 -217 -186 -233 -61 -446 77 -469 303 l-7 62
397 0 396 0 0 68 c-1 134 -42 234 -132 317 -80 74 -144 98 -278 101 -66 2
-122 -2 -151 -10z m242 -62 c145 -42 239 -160 239 -300 l0 -54 -356 0 -357 0
7 57 c26 223 245 362 467 297z"/>
<path d="M25350 22415 c-146 -41 -255 -155 -296 -310 -18 -64 -18 -216 0 -280
56 -208 212 -326 430 -326 132 0 230 36 316 117 177 166 184 502 14 684 -30
32 -74 64 -121 87 -69 34 -81 37 -181 40 -74 2 -124 -2 -162 -12z m282 -75
c107 -40 190 -139 218 -259 18 -77 8 -221 -20 -296 -89 -233 -426 -299 -606
-120 -114 114 -145 344 -68 502 83 170 287 244 476 173z"/>
<path d="M27839 22416 c-190 -55 -309 -226 -309 -446 0 -308 209 -500 510
-469 144 15 260 92 319 211 42 83 41 98 -7 98 -36 0 -38 -2 -51 -44 -38 -129
-191 -216 -358 -203 -179 13 -312 140 -329 315 l-7 62 397 0 396 0 0 68 c-1
134 -42 234 -132 317 -80 74 -144 98 -278 101 -66 2 -122 -2 -151 -10z m242
-62 c145 -42 239 -162 239 -304 l0 -50 -356 0 -357 0 6 55 c23 222 245 364
468 299z"/>
<path d="M31907 22409 c-188 -64 -289 -220 -288 -442 1 -151 35 -250 119 -339
84 -90 181 -129 322 -129 150 0 267 60 341 174 l39 60 0 -111 0 -112 40 0 40
0 0 455 0 455 -40 0 -40 0 0 -112 c-1 -110 -1 -112 -17 -83 -48 89 -129 157
-224 186 -83 26 -214 25 -292 -2z m258 -54 c113 -30 188 -96 243 -212 25 -53
27 -68 27 -179 0 -119 0 -121 -38 -196 -55 -112 -134 -173 -259 -199 -106 -23
-242 12 -322 82 -153 134 -166 443 -26 602 85 98 235 138 375 102z"/>
<path d="M33758 22411 c-174 -56 -279 -201 -294 -407 -21 -291 163 -504 438
-505 42 0 94 3 115 7 113 21 226 107 274 209 40 83 39 97 -7 93 -34 -3 -38 -7
-56 -55 -44 -120 -190 -201 -341 -191 -197 14 -321 132 -344 325 l-6 53 397 0
396 0 0 74 c0 190 -107 344 -277 396 -84 26 -215 26 -295 1z m274 -60 c58 -18
130 -72 165 -124 35 -52 48 -91 59 -174 l7 -53 -362 0 -361 0 0 29 c0 16 9 58
20 94 36 115 124 201 239 234 51 14 175 11 233 -6z"/>
<path d="M19012 22088 l3 -333 29 -63 c59 -129 172 -195 331 -194 143 0 241
48 306 151 l29 45 0 -92 0 -92 40 0 40 0 0 455 0 455 -39 0 -40 0 -3 -307 c-3
-293 -5 -311 -26 -365 -45 -112 -142 -178 -273 -186 -141 -8 -235 42 -291 155
l-33 68 -3 317 -3 318 -35 0 -35 0 3 -332z"/>
<path d="M28620 22132 c0 -301 7 -374 43 -451 78 -167 311 -235 500 -148 59
27 97 62 139 126 l28 45 0 -97 0 -97 35 0 35 0 0 455 0 455 -35 0 -35 0 0
-252 c0 -139 -5 -284 -10 -321 -26 -175 -128 -274 -296 -285 -106 -7 -173 16
-238 81 -84 85 -89 106 -94 470 l-4 307 -34 0 -34 0 0 -288z"/>
<path d="M32730 22390 l0 -30 240 0 c132 0 240 -2 240 -5 0 -3 -112 -182 -250
-398 -172 -269 -250 -400 -250 -419 l0 -28 300 0 300 0 0 30 0 30 -255 2 -255
3 250 390 c193 302 250 397 250 423 l0 32 -285 0 -285 0 0 -30z"/>
<path d="M35177 21612 c-49 -54 18 -137 78 -98 55 36 35 116 -29 116 -19 0
-40 -8 -49 -18z"/>
</g>
</svg>
